<?xml version="1.0" encoding="UTF-8"?>
<svg version="1.1" xmlns="http://www.w3.org/2000/svg" width="512" height="512">
<path d="M0 0 C2.0625 1.375 2.0625 1.375 4 3 C4.845625 3.33 5.69125 3.66 6.5625 4 C9.08104971 5.03325116 10.11467145 6.11467145 12 8 C12.66 8.165 13.32 8.33 14 8.5 C16.4379812 9.1094953 17.2938316 10.21627849 19 12 C19.66 12 20.32 12 21 12 C21.99 12.99 21.99 12.99 23 14 C23.99 14.33 24.98 14.66 26 15 C26.474375 15.495 26.94875 15.99 27.4375 16.5 C28.89764716 18.15039453 28.89764716 18.15039453 31 18.5 C33 19 33 19 34.375 20.4375 C36.02347055 22.24648642 36.02347055 22.24648642 39 23 C41.968611 23.989537 42.96611016 24.76272117 45 27 C45.66 27 46.32 27 47 27 C47.99 27.99 47.99 27.99 49 29 C49.99 29.33 50.98 29.66 52 30 C52.474375 30.495 52.94875 30.99 53.4375 31.5 C54.89764716 33.15039453 54.89764716 33.15039453 57 33.5 C59.45541971 34.11385493 60.23766782 35.23766782 62 37 C62.66 37.165 63.32 37.33 64 37.5 C66.45541971 38.11385493 67.23766782 39.23766782 69 41 C70.32594105 41.36162029 71.65938457 41.69728039 73 42 C73.66 42.66 74.32 43.32 75 44 C75.99 44.33 76.98 44.66 78 45 C78.474375 45.495 78.94875 45.99 79.4375 46.5 C80.89764716 48.15039453 80.89764716 48.15039453 83 48.5 C85.45541971 49.11385493 86.23766782 50.23766782 88 52 C89.32594105 52.36162029 90.65938457 52.69728039 92 53 C92.66 53.66 93.32 54.32 94 55 C94.99 55.33 95.98 55.66 97 56 C97.474375 56.495 97.94875 56.99 98.4375 57.5 C99.89764716 59.15039453 99.89764716 59.15039453 102 59.5 C104.45541971 60.11385493 105.23766782 61.23766782 107 63 C107.66 63.165 108.32 63.33 109 63.5 C111.4852139 64.12130348 112.20255096 65.20255096 114 67 C116.97373807 68.61077479 119.79123624 69.93041208 123 71 C123.7115625 71.7425 123.7115625 71.7425 124.4375 72.5 C125.89764716 74.15039453 125.89764716 74.15039453 128 74.5 C130.45541971 75.11385493 131.23766782 76.23766782 133 78 C133.66 78.165 134.32 78.33 135 78.5 C137.4379812 79.1094953 138.2938316 80.21627849 140 82 C140.66 82 141.32 82 142 82 C143 83 144 84 145 85 C145.66 85 146.32 85 147 85 C147.4125 85.45375 147.825 85.9075 148.25 86.375 C150.00862089 88.23276416 150.00862089 88.23276416 153 89 C156.02227062 90.00742354 156.88609233 90.79000562 159 93 C160.32594105 93.36162029 161.65938457 93.69728039 163 94 C163.66 94.66 164.32 95.32 165 96 C165.99 96.33 166.98 96.66 168 97 C169 98 170 99 171 100 C171.66 100 172.32 100 173 100 C173.41038891 100.44647605 173.82077782 100.8929521 174.24360275 101.35295773 C175.99665399 103.20876379 175.99665399 103.20876379 178.87007523 104.07338047 C182.73300584 105.60227965 185.10515617 106.99284291 188 110 C190.36237357 116.68486204 189.51123034 124.38590182 189.36230469 131.35717773 C189.35891869 133.56507685 189.36082198 135.77298948 189.36761475 137.98088074 C189.3710573 143.96906405 189.30052529 149.95436164 189.21672726 155.94187427 C189.14169752 162.20109585 189.13466157 168.46038407 189.12042236 174.71998596 C189.08736532 185.22419782 189.01241923 195.72751759 188.90527344 206.23120117 C188.7950499 217.04787929 188.71014706 227.86426982 188.65917969 238.68139648 C188.65602701 239.34864443 188.65287432 240.01589237 188.64962611 240.70335995 C188.63396515 244.05089567 188.61880078 247.39843341 188.60388327 250.74597251 C188.47846036 278.49805167 188.26739815 306.24895138 188 334 C187.38125 334.28875 186.7625 334.5775 186.125 334.875 C183.86674235 335.93720042 183.86674235 335.93720042 182 338 C179.66666667 339 177.33333333 340 175 341 C174.34 341.66 173.68 342.32 173 343 C171.33333333 343.66666667 169.66666667 344.33333333 168 345 C167.34 345.66 166.68 346.32 166 347 C163.98872941 348.07267765 161.93725695 349.02952614 159.875 350 C157.83448849 350.97140377 157.83448849 350.97140377 156 353 C153.66666667 354 151.33333333 355 149 356 C148.34 356.66 147.68 357.32 147 358 C146.01 358.33 145.02 358.66 144 359 C143.484375 359.515625 142.96875 360.03125 142.4375 360.5625 C141.963125 361.036875 141.48875 361.51125 141 362 C140.34 362 139.68 362 139 362 C138.34 362.66 137.68 363.32 137 364 C135.33333333 364.66666667 133.66666667 365.33333333 132 366 C131.34 366.66 130.68 367.32 130 368 C128.7934375 368.4640625 128.7934375 368.4640625 127.5625 368.9375 C124.9867239 369.81413455 124.9867239 369.81413455 123.4375 371.5625 C121.68957323 373.31042677 120.3709345 373.46462769 118 374 C117.34 374.66 116.68 375.32 116 376 C115.01 376.33 114.02 376.66 113 377 C112.34 377.66 111.68 378.32 111 379 C109.7934375 379.4640625 109.7934375 379.4640625 108.5625 379.9375 C105.9867239 380.81413455 105.9867239 380.81413455 104.4375 382.5625 C102.68276559 384.31723441 101.36955531 384.40761117 99 385 C97.9805881 385.98020375 96.97753644 386.97803008 96 388 C95.34 388 94.68 388 94 388 C93.34 388.66 92.68 389.32 92 390 C90.33333333 390.66666667 88.66666667 391.33333333 87 392 C86.34 392.66 85.68 393.32 85 394 C83.7934375 394.4640625 83.7934375 394.4640625 82.5625 394.9375 C79.9867239 395.81413455 79.9867239 395.81413455 78.4375 397.5625 C76.68276559 399.31723441 75.36955531 399.40761117 73 400 C71.9805881 400.98020375 70.97753644 401.97803008 70 403 C69.34 403 68.68 403 68 403 C67.34 403.66 66.68 404.32 66 405 C64.33333333 405.66666667 62.66666667 406.33333333 61 407 C60.34 407.66 59.68 408.32 59 409 C57.7934375 409.4640625 57.7934375 409.4640625 56.5625 409.9375 C54.00097657 410.99959508 52.87430383 412.03644361 51 414 C50.34 414 49.68 414 49 414 C48.54625 414.474375 48.0925 414.94875 47.625 415.4375 C45.74479784 417.24538669 44.49588446 417.43641319 42 418 C41.34 418.66 40.68 419.32 40 420 C38.7934375 420.4640625 38.7934375 420.4640625 37.5625 420.9375 C34.9867239 421.81413455 34.9867239 421.81413455 33.4375 423.5625 C31.68276559 425.31723441 30.36955531 425.40761117 28 426 C26.9805881 426.98020375 25.97753644 427.97803008 25 429 C24.34 429 23.68 429 23 429 C22.505 429.495 22.01 429.99 21.5 430.5 C21.005 430.995 20.51 431.49 20 432 C19.34 432 18.68 432 18 432 C17.54625 432.474375 17.0925 432.94875 16.625 433.4375 C14.73305402 435.25667882 13.49721205 435.37569699 11 436 C10.54625 436.474375 10.0925 436.94875 9.625 437.4375 C7.38394873 439.59235699 4.93013607 440.06485019 2 441 C1.34 441.66 0.68 442.32 0 443 C-2.96575376 443.96186608 -4.60749849 444.11214329 -7.625 443.25 C-9.92372895 442.04014266 -11.18964161 440.81035839 -13 439 C-13.66 438.835 -14.32 438.67 -15 438.5 C-17.45541971 437.88614507 -18.23766782 436.76233218 -20 435 C-22.10332891 434.28552357 -22.10332891 434.28552357 -24 434 C-24 433.34 -24 432.68 -24 432 C-25.11375 431.71125 -26.2275 431.4225 -27.375 431.125 C-31 430 -31 430 -33 428 C-33.99 427.67 -34.98 427.34 -36 427 C-36.474375 426.505 -36.94875 426.01 -37.4375 425.5 C-38.89764716 423.84960547 -38.89764716 423.84960547 -41 423.5 C-43.45541971 422.88614507 -44.23766782 421.76233218 -46 420 C-46.66 419.835 -47.32 419.67 -48 419.5 C-50.4379812 418.8905047 -51.2938316 417.78372151 -53 416 C-53.66 416 -54.32 416 -55 416 C-55.45375 415.525625 -55.9075 415.05125 -56.375 414.5625 C-57.88316803 412.85297943 -57.88316803 412.85297943 -60 412.5 C-62.45541971 411.88614507 -63.23766782 410.76233218 -65 409 C-65.66 408.835 -66.32 408.67 -67 408.5 C-69.45541971 407.88614507 -70.23766782 406.76233218 -72 405 C-72.66 404.835 -73.32 404.67 -74 404.5 C-76.4379812 403.8905047 -77.2938316 402.78372151 -79 401 C-79.66 401 -80.32 401 -81 401 C-81.680625 400.2884375 -81.680625 400.2884375 -82.375 399.5625 C-83.88316803 397.85297943 -83.88316803 397.85297943 -86 397.5 C-88.45541971 396.88614507 -89.23766782 395.76233218 -91 394 C-91.66 393.835 -92.32 393.67 -93 393.5 C-95.45541971 392.88614507 -96.23766782 391.76233218 -98 390 C-98.66 389.835 -99.32 389.67 -100 389.5 C-102.4379812 388.8905047 -103.2938316 387.78372151 -105 386 C-105.66 386 -106.32 386 -107 386 C-107.66 385.34 -108.32 384.68 -109 384 C-109.99 383.67 -110.98 383.34 -112 383 C-112.6496875 382.2884375 -112.6496875 382.2884375 -113.3125 381.5625 C-115.02309613 379.76313043 -115.02309613 379.76313043 -118 379 C-121.02227062 377.99257646 -121.88609233 377.20999438 -124 375 C-125.32594105 374.63837971 -126.65938457 374.30271961 -128 374 C-128.66 373.34 -129.32 372.68 -130 372 C-130.99 371.67 -131.98 371.34 -133 371 C-133.66 370.34 -134.32 369.68 -135 369 C-135.99 368.67 -136.98 368.34 -138 368 C-138.433125 367.525625 -138.86625 367.05125 -139.3125 366.5625 C-141.02309613 364.76313043 -141.02309613 364.76313043 -144 364 C-146.968611 363.010463 -147.96611016 362.23727883 -150 360 C-150.66 360 -151.32 360 -152 360 C-152.66 359.34 -153.32 358.68 -154 358 C-154.825 357.67 -155.65 357.34 -156.5 357 C-159 356 -159 356 -161 354 C-161.99 353.67 -162.98 353.34 -164 353 C-164.6496875 352.2884375 -164.6496875 352.2884375 -165.3125 351.5625 C-167.02309613 349.76313043 -167.02309613 349.76313043 -170 349 C-172.968611 348.010463 -173.96611016 347.23727883 -176 345 C-176.66 345 -177.32 345 -178 345 C-178.66 344.34 -179.32 343.68 -180 343 C-180.99 342.67 -181.98 342.34 -183 342 C-183.7115625 341.2575 -183.7115625 341.2575 -184.4375 340.5 C-185.89764716 338.84960547 -185.89764716 338.84960547 -188 338.5 C-190.46620725 337.88344819 -191.30117159 336.84655262 -193 335 C-193.99 334.34 -194.98 333.68 -196 333 C-196.29410524 330.01675968 -196.39089887 327.24116346 -196.36076355 324.25558472 C-196.36332682 323.33916014 -196.3658901 322.42273556 -196.36853105 321.47854054 C-196.37349647 318.3890012 -196.35693063 315.29994399 -196.34057617 312.21044922 C-196.3397305 310.00328584 -196.34020388 307.79612162 -196.34190369 305.58895874 C-196.34276738 299.58093102 -196.32508108 293.57308157 -196.30418181 287.56509542 C-196.2854773 281.29235828 -196.2836695 275.01961742 -196.28010559 268.74685669 C-196.27182902 258.21320555 -196.25306745 247.67961311 -196.22631836 237.14599609 C-196.19879215 226.29508798 -196.17755155 215.44419768 -196.16479492 204.59326172 C-196.16400675 203.92470016 -196.16321858 203.25613859 -196.16240653 202.56731759 C-196.15849149 199.21342701 -196.15470035 195.8595363 -196.15097082 192.50564551 C-196.11958022 164.67038459 -196.06678412 136.8351969 -196 109 C-195.04609375 108.70351562 -194.0921875 108.40703125 -193.109375 108.1015625 C-190.10663193 107.03777664 -189.06499143 106.27149057 -187 104 C-186.34 104 -185.68 104 -185 104 C-184.505 103.505 -184.01 103.01 -183.5 102.5 C-183.005 102.005 -182.51 101.51 -182 101 C-181.34 101 -180.68 101 -180 101 C-179.5875 100.54625 -179.175 100.0925 -178.75 99.625 C-176.42881026 97.46960953 -173.98233696 96.99411232 -171 96 C-169.9805881 95.01979625 -168.97753644 94.02196992 -168 93 C-166.66666667 92.66666667 -165.33333333 92.33333333 -164 92 C-162.9805881 91.01979625 -161.97753644 90.02196992 -161 89 C-160.34 89 -159.68 89 -159 89 C-158.34 88.34 -157.68 87.68 -157 87 C-156.01 86.67 -155.02 86.34 -154 86 C-153.525625 85.505 -153.05125 85.01 -152.5625 84.5 C-150.71714785 82.72846194 -149.43908139 82.60977035 -147 82 C-146.54625 81.525625 -146.0925 81.05125 -145.625 80.5625 C-143.38945337 78.41293593 -140.91664146 77.97221382 -138 77 C-136.29078411 75.4587688 -136.29078411 75.4587688 -135 74 C-134.34 74 -133.68 74 -133 74 C-132.34 73.34 -131.68 72.68 -131 72 C-130.01 71.67 -129.02 71.34 -128 71 C-127.525625 70.505 -127.05125 70.01 -126.5625 69.5 C-124.71714785 67.72846194 -123.43908139 67.60977035 -121 67 C-120.505 66.505 -120.01 66.01 -119.5 65.5 C-117.69851305 63.69851305 -116.42864387 63.60716097 -114 63 C-113.505 62.505 -113.01 62.01 -112.5 61.5 C-110.70741707 59.70741707 -109.42861154 59.54839615 -107 59 C-106.01 58.01 -106.01 58.01 -105 57 C-104.01 56.67 -103.02 56.34 -102 56 C-101.525625 55.505 -101.05125 55.01 -100.5625 54.5 C-98.71714785 52.72846194 -97.43908139 52.60977035 -95 52 C-94.505 51.505 -94.01 51.01 -93.5 50.5 C-91.69851305 48.69851305 -90.42864387 48.60716097 -88 48 C-86.9805881 47.01979625 -85.97753644 46.02196992 -85 45 C-84.34 45 -83.68 45 -83 45 C-82.54625 44.525625 -82.0925 44.05125 -81.625 43.5625 C-79.73305402 41.74332118 -78.49721205 41.62430301 -76 41 C-75.505 40.505 -75.01 40.01 -74.5 39.5 C-72.69851305 37.69851305 -71.42864387 37.60716097 -69 37 C-68.505 36.505 -68.01 36.01 -67.5 35.5 C-65.70741707 33.70741707 -64.42861154 33.54839615 -62 33 C-61.01 32.01 -61.01 32.01 -60 31 C-59.01 30.67 -58.02 30.34 -57 30 C-56.525625 29.505 -56.05125 29.01 -55.5625 28.5 C-53.71714785 26.72846194 -52.43908139 26.60977035 -50 26 C-49.2575 25.2575 -49.2575 25.2575 -48.5 24.5 C-46.69851305 22.69851305 -45.42864387 22.60716097 -43 22 C-42.2575 21.2575 -42.2575 21.2575 -41.5 20.5 C-39.70741707 18.70741707 -38.42861154 18.54839615 -36 18 C-35.34 17.34 -34.68 16.68 -34 16 C-33.319375 15.835 -32.63875 15.67 -31.9375 15.5 C-31.298125 15.335 -30.65875 15.17 -30 15 C-29.67 14.34 -29.34 13.68 -29 13 C-27 12.33333333 -25 11.66666667 -23 11 C-22.67 10.34 -22.34 9.68 -22 9 C-20.824375 8.5359375 -20.824375 8.5359375 -19.625 8.0625 C-16.99235958 7.1955622 -16.99235958 7.1955622 -15.4375 5.4375 C-13.68957323 3.68957323 -12.3709345 3.53537231 -10 3 C-9.34 2.34 -8.68 1.68 -8 1 C-5.19084526 -0.40457737 -3.11189466 -0.24895157 0 0 Z " fill="#F47F62" transform="translate(324,52)"/>
<path d="M0 0 C0 73.59 0 147.18 0 223 C-1.98 223.99 -1.98 223.99 -4 225 C-4.66 225.66 -5.32 226.32 -6 227 C-8.33333333 228 -10.66666667 229 -13 230 C-13.66 230.66 -14.32 231.32 -15 232 C-16.66666667 232.66666667 -18.33333333 233.33333333 -20 234 C-20.66 234.66 -21.32 235.32 -22 236 C-24.01127059 237.07267765 -26.06274305 238.02952614 -28.125 239 C-30.16551151 239.97140377 -30.16551151 239.97140377 -32 242 C-34.33333333 243 -36.66666667 244 -39 245 C-39.66 245.66 -40.32 246.32 -41 247 C-41.99 247.33 -42.98 247.66 -44 248 C-44.515625 248.515625 -45.03125 249.03125 -45.5625 249.5625 C-46.036875 250.036875 -46.51125 250.51125 -47 251 C-47.66 251 -48.32 251 -49 251 C-49.66 251.66 -50.32 252.32 -51 253 C-52.66666667 253.66666667 -54.33333333 254.33333333 -56 255 C-56.66 255.66 -57.32 256.32 -58 257 C-59.2065625 257.4640625 -59.2065625 257.4640625 -60.4375 257.9375 C-63.0132761 258.81413455 -63.0132761 258.81413455 -64.5625 260.5625 C-66.31042677 262.31042677 -67.6290655 262.46462769 -70 263 C-70.66 263.66 -71.32 264.32 -72 265 C-72.99 265.33 -73.98 265.66 -75 266 C-75.66 266.66 -76.32 267.32 -77 268 C-78.2065625 268.4640625 -78.2065625 268.4640625 -79.4375 268.9375 C-82.0132761 269.81413455 -82.0132761 269.81413455 -83.5625 271.5625 C-85.31723441 273.31723441 -86.63044469 273.40761117 -89 274 C-90.0194119 274.98020375 -91.02246356 275.97803008 -92 277 C-92.66 277 -93.32 277 -94 277 C-94.66 277.66 -95.32 278.32 -96 279 C-97.66666667 279.66666667 -99.33333333 280.33333333 -101 281 C-101.66 281.66 -102.32 282.32 -103 283 C-104.2065625 283.4640625 -104.2065625 283.4640625 -105.4375 283.9375 C-108.0132761 284.81413455 -108.0132761 284.81413455 -109.5625 286.5625 C-111.31723441 288.31723441 -112.63044469 288.40761117 -115 289 C-116.0194119 289.98020375 -117.02246356 290.97803008 -118 292 C-118.66 292 -119.32 292 -120 292 C-120.66 292.66 -121.32 293.32 -122 294 C-123.66666667 294.66666667 -125.33333333 295.33333333 -127 296 C-127.66 296.66 -128.32 297.32 -129 298 C-130.2065625 298.4640625 -130.2065625 298.4640625 -131.4375 298.9375 C-133.99902343 299.99959508 -135.12569617 301.03644361 -137 303 C-137.66 303 -138.32 303 -139 303 C-139.45375 303.474375 -139.9075 303.94875 -140.375 304.4375 C-142.25520216 306.24538669 -143.50411554 306.43641319 -146 307 C-146.66 307.66 -147.32 308.32 -148 309 C-149.2065625 309.4640625 -149.2065625 309.4640625 -150.4375 309.9375 C-153.0132761 310.81413455 -153.0132761 310.81413455 -154.5625 312.5625 C-156.31723441 314.31723441 -157.63044469 314.40761117 -160 315 C-161.0194119 315.98020375 -162.02246356 316.97803008 -163 318 C-163.66 318 -164.32 318 -165 318 C-165.7425 318.7425 -165.7425 318.7425 -166.5 319.5 C-167.2425 320.2425 -167.2425 320.2425 -168 321 C-168.66 321 -169.32 321 -170 321 C-170.45375 321.474375 -170.9075 321.94875 -171.375 322.4375 C-173.26694598 324.25667882 -174.50278795 324.37569699 -177 325 C-177.45375 325.474375 -177.9075 325.94875 -178.375 326.4375 C-180.61605127 328.59235699 -183.06986393 329.06485019 -186 330 C-186.66 330.66 -187.32 331.32 -188 332 C-190.625 332.625 -190.625 332.625 -193 333 C-193.26662171 304.22762587 -193.43592404 275.45609941 -193.48965549 246.68250465 C-193.51686932 233.32188414 -193.57581728 219.96302052 -193.7097168 206.60302734 C-193.82635625 194.95712013 -193.88320712 183.31271031 -193.86853737 171.666201 C-193.86285124 165.49971597 -193.8869123 159.33660978 -193.98260689 153.17079544 C-194.07180019 147.36296085 -194.08085065 141.56043442 -194.02923203 135.75219727 C-194.02430141 133.62445717 -194.04831157 131.49641658 -194.10386848 129.36939621 C-194.48891257 113.72363303 -194.48891257 113.72363303 -190.33995891 109.18340635 C-186.2780793 105.99036211 -181.84366432 103.85281861 -177.08610046 101.89479899 C-174.05131398 100.5930765 -171.32068932 98.94194043 -168.49609375 97.234375 C-166.47690242 96.07232581 -164.45736763 94.91087325 -162.4375 93.75 C-153.94310062 88.85913459 -145.4623405 83.94612476 -137 79 C-125.45281274 72.25280507 -113.87097832 65.56660602 -102.28222656 58.89111328 C-96.85340062 55.76319854 -91.42677993 52.63146269 -86 49.5 C-79.47766725 45.73636081 -72.95486238 41.97355378 -66.4296875 38.21484375 C-49.79185288 28.62865906 -33.15889075 19.03227144 -16.64453125 9.234375 C-15.62327148 8.62867676 -14.60201172 8.02297852 -13.54980469 7.39892578 C-11.59475798 6.23797699 -9.64093113 5.07497088 -7.68847656 3.90966797 C-6.82319336 3.39549316 -5.95791016 2.88131836 -5.06640625 2.3515625 C-4.30271729 1.89604004 -3.53902832 1.44051758 -2.75219727 0.97119141 C-1 0 -1 0 0 0 Z " fill="#BF5247" transform="translate(512,163)"/>
<path d="M0 0 C2.0625 1.375 2.0625 1.375 4 3 C5.2684375 3.495 5.2684375 3.495 6.5625 4 C9.08104971 5.03325116 10.11467145 6.11467145 12 8 C12.66 8.165 13.32 8.33 14 8.5 C16.4379812 9.1094953 17.2938316 10.21627849 19 12 C19.66 12 20.32 12 21 12 C21.99 12.99 21.99 12.99 23 14 C23.99 14.33 24.98 14.66 26 15 C26.474375 15.495 26.94875 15.99 27.4375 16.5 C28.89764716 18.15039453 28.89764716 18.15039453 31 18.5 C33 19 33 19 34.375 20.4375 C36.02347055 22.24648642 36.02347055 22.24648642 39 23 C41.968611 23.989537 42.96611016 24.76272117 45 27 C45.66 27 46.32 27 47 27 C47.99 27.99 47.99 27.99 49 29 C50.485 29.495 50.485 29.495 52 30 C52.474375 30.495 52.94875 30.99 53.4375 31.5 C54.89764716 33.15039453 54.89764716 33.15039453 57 33.5 C59.45541971 34.11385493 60.23766782 35.23766782 62 37 C62.66 37.165 63.32 37.33 64 37.5 C66.45541971 38.11385493 67.23766782 39.23766782 69 41 C70.32594105 41.36162029 71.65938457 41.69728039 73 42 C73.66 42.66 74.32 43.32 75 44 C75.99 44.33 76.98 44.66 78 45 C78.474375 45.495 78.94875 45.99 79.4375 46.5 C80.89764716 48.15039453 80.89764716 48.15039453 83 48.5 C85.45541971 49.11385493 86.23766782 50.23766782 88 52 C89.32594105 52.36162029 90.65938457 52.69728039 92 53 C92.66 53.66 93.32 54.32 94 55 C94.99 55.33 95.98 55.66 97 56 C97.474375 56.495 97.94875 56.99 98.4375 57.5 C99.89764716 59.15039453 99.89764716 59.15039453 102 59.5 C104.45541971 60.11385493 105.23766782 61.23766782 107 63 C107.66 63.165 108.32 63.33 109 63.5 C111.4852139 64.12130348 112.20255096 65.20255096 114 67 C116.97373807 68.61077479 119.79123624 69.93041208 123 71 C123.474375 71.495 123.94875 71.99 124.4375 72.5 C125.89764716 74.15039453 125.89764716 74.15039453 128 74.5 C130.45541971 75.11385493 131.23766782 76.23766782 133 78 C133.66 78.165 134.32 78.33 135 78.5 C137.4379812 79.1094953 138.2938316 80.21627849 140 82 C140.66 82 141.32 82 142 82 C143 83 144 84 145 85 C145.66 85 146.32 85 147 85 C147.61875 85.680625 147.61875 85.680625 148.25 86.375 C150.00862089 88.23276416 150.00862089 88.23276416 153 89 C156.02227062 90.00742354 156.88609233 90.79000562 159 93 C160.32594105 93.36162029 161.65938457 93.69728039 163 94 C163.66 94.66 164.32 95.32 165 96 C165.99 96.33 166.98 96.66 168 97 C169 98 170 99 171 100 C171.66 100 172.32 100 173 100 C173.40863281 100.41894531 173.81726563 100.83789062 174.23828125 101.26953125 C176.61971176 103.60871909 179.29180825 105.03726707 182.1875 106.6875 C183.27417969 107.31011719 184.36085938 107.93273437 185.48046875 108.57421875 C186.72763672 109.27998047 186.72763672 109.27998047 188 110 C185.0566084 113.1975539 182.11220862 115.27698333 178.328125 117.3984375 C177.20132324 118.03531494 176.07452148 118.67219238 174.91357422 119.32836914 C174.31704041 119.66160187 173.72050659 119.99483459 173.105896 120.33816528 C170.57291462 121.75326776 168.04811549 123.1826861 165.52279663 124.61140442 C164.22764425 125.34403576 162.93208889 126.07595513 161.63613892 126.80717468 C155.68241044 130.16887317 149.77359477 133.60502821 143.875 137.0625 C132.37192394 143.79318598 120.83075754 150.45656244 109.28222656 157.10888672 C103.85340062 160.23680146 98.42677993 163.36853731 93 166.5 C86.47766725 170.26363919 79.95486238 174.02644622 73.4296875 177.78515625 C61.96000754 184.39387661 50.50497643 191.02620906 39.078125 197.70874023 C33.70582715 200.847776 28.32437225 203.96996307 22.9296875 207.0703125 C22.33907532 207.40996033 21.74846313 207.74960815 21.13995361 208.09954834 C18.27843134 209.74485729 15.41565415 211.38786889 12.55078125 213.02734375 C11.52082031 213.61902344 10.49085938 214.21070313 9.4296875 214.8203125 C8.4715918 215.36848633 7.51349609 215.91666016 6.52636719 216.48144531 C4.42623499 217.74379768 2.51582993 219.07421428 0.5703125 220.5546875 C-0.70199219 221.27011719 -0.70199219 221.27011719 -2 222 C-5.4571639 220.90451275 -8.52956408 219.23767204 -11.67578125 217.453125 C-13.02349609 216.69080566 -13.02349609 216.69080566 -14.3984375 215.91308594 C-15.36007812 215.36426758 -16.32171875 214.81544922 -17.3125 214.25 C-18.82263672 213.39196777 -18.82263672 213.39196777 -20.36328125 212.51660156 C-44.48557014 198.77615173 -44.48557014 198.77615173 -50.73493958 194.80679321 C-53.9841605 192.85958563 -53.9841605 192.85958563 -57.80282593 191.84866333 C-62.53818021 190.23018862 -66.19523891 188.25902112 -69 184 C-71.75254455 174.29186706 -70.85985783 163.50646329 -70.61970377 153.50267267 C-70.53672847 149.41640785 -70.53706815 145.33010935 -70.52755737 141.24313354 C-70.50000525 134.38778787 -70.41760184 127.5349672 -70.29638672 120.68066406 C-70.12552712 111.01024481 -70.05887023 101.34108814 -70.01053262 91.66939569 C-69.97318945 84.96760585 -69.91116731 78.26600786 -69.8443923 71.56445456 C-69.82830683 69.940101 -69.81289719 68.31574061 -69.79815531 66.6913743 C-69.75527155 62.06572577 -69.69701279 57.44079976 -69.61372375 52.81569481 C-69.59055267 51.41409739 -69.57236987 50.01240749 -69.5594902 48.61067772 C-69.54084749 46.70056128 -69.50182683 44.79067581 -69.46170044 42.88088989 C-69.44498354 41.81131609 -69.42826664 40.74174229 -69.41104317 39.63975716 C-69 37 -69 37 -67.60004997 35.16760063 C-65.75539606 33.82150575 -64.20916173 33.49884297 -62 33 C-61.34 32.34 -60.68 31.68 -60 31 C-59.01 30.67 -58.02 30.34 -57 30 C-56.525625 29.505 -56.05125 29.01 -55.5625 28.5 C-53.71714785 26.72846194 -52.43908139 26.60977035 -50 26 C-49.505 25.505 -49.01 25.01 -48.5 24.5 C-46.69851305 22.69851305 -45.42864387 22.60716097 -43 22 C-42.505 21.505 -42.01 21.01 -41.5 20.5 C-39.70741707 18.70741707 -38.42861154 18.54839615 -36 18 C-35.34 17.34 -34.68 16.68 -34 16 C-33.319375 15.835 -32.63875 15.67 -31.9375 15.5 C-31.298125 15.335 -30.65875 15.17 -30 15 C-29.67 14.34 -29.34 13.68 -29 13 C-27 12.33333333 -25 11.66666667 -23 11 C-22.67 10.34 -22.34 9.68 -22 9 C-21.21625 8.690625 -20.4325 8.38125 -19.625 8.0625 C-16.99235958 7.1955622 -16.99235958 7.1955622 -15.4375 5.4375 C-13.68957323 3.68957323 -12.3709345 3.53537231 -10 3 C-9.34 2.34 -8.68 1.68 -8 1 C-5.19084526 -0.40457737 -3.11189466 -0.24895157 0 0 Z " fill="#FBC3AE" transform="translate(324,52)"/>
<path d="M0 0 C0 72.93 0 145.86 0 221 C-3.88461437 219.44615425 -7.17185557 217.86235312 -10.76953125 215.796875 C-11.89311035 215.15355225 -13.01668945 214.51022949 -14.17431641 213.84741211 C-15.38711721 213.14840128 -16.59984319 212.44926061 -17.8125 211.75 C-19.07459978 211.0252852 -20.33680831 210.30075976 -21.59912109 209.57641602 C-30.44276363 204.49625437 -39.25867967 199.36874397 -48.06225586 194.21948242 C-58.58744748 188.06376359 -69.15221981 181.97721107 -79.71777344 175.89111328 C-86.22871257 172.13971976 -92.73663194 168.38309006 -99.24511719 164.62744141 C-104.68585336 161.48817754 -110.12731477 158.35018503 -115.5703125 155.21484375 C-126.99243237 148.63339754 -138.39649051 142.02310979 -149.7746582 135.3659668 C-159.14520599 129.89418771 -168.56814401 124.51519717 -178.00146484 119.15258789 C-179.13148926 118.50926514 -180.26151367 117.86594238 -181.42578125 117.203125 C-182.43036377 116.63239258 -183.43494629 116.06166016 -184.4699707 115.47363281 C-186.3509888 114.378021 -188.18876691 113.20748873 -190 112 C-188.73172274 108.19516823 -187.56878831 107.89015182 -184.12890625 105.953125 C-183.09314453 105.36337891 -182.05738281 104.77363281 -180.99023438 104.16601562 C-179.85908203 103.53373047 -178.72792969 102.90144531 -177.5625 102.25 C-176.38161359 101.58104434 -175.20128302 100.9111066 -174.02148438 100.24023438 C-171.56741044 98.84578107 -169.11098596 97.45560687 -166.65283203 96.06835938 C-161.07920557 92.91832869 -155.54139901 89.70626151 -150 86.5 C-147.83611962 85.25098652 -145.67205636 84.0022898 -143.5078125 82.75390625 C-142.43563477 82.13531738 -141.36345703 81.51672852 -140.25878906 80.87939453 C-136.98300434 78.99019834 -133.70644107 77.10235891 -130.4296875 75.21484375 C-119.93767906 69.16944841 -109.45518324 63.10889781 -99 57 C-85.26944812 48.97732489 -71.48922034 41.04141741 -57.70898438 33.10449219 C-45.79191113 26.23960656 -33.88173365 19.36341939 -22 12.4375 C-20.55923096 11.59819946 -20.55923096 11.59819946 -19.08935547 10.74194336 C-13.66098921 7.57340779 -8.26367596 4.36064845 -2.8984375 1.08618164 C-1 0 -1 0 0 0 Z " fill="#F37F62" transform="translate(512,163)"/>
<path d="M0 0 C4.48125261 0.53544379 7.61997644 1.63718416 11.5 3.921875 C12.54220703 4.5295874 13.58441406 5.1372998 14.65820312 5.76342773 C15.76099609 6.41899658 16.86378906 7.07456543 18 7.75 C19.13888672 8.41652588 20.27777344 9.08305176 21.45117188 9.76977539 C27.16171004 13.11310044 32.84549469 16.5014728 38.53125 19.88671875 C39.53929687 20.48581055 40.54734375 21.08490234 41.5859375 21.70214844 C43.50043191 22.84224782 45.41199515 23.98728655 47.3203125 25.13769531 C48.60035156 25.90291504 48.60035156 25.90291504 49.90625 26.68359375 C51.02483398 27.35733032 51.02483398 27.35733032 52.16601562 28.04467773 C53.95098283 29.15399362 53.95098283 29.15399362 56 29 C56 29.66 56 30.32 56 31 C58.31 31.66 60.62 32.32 63 33 C63 33.66 63 34.32 63 35 C64.32 35.33 65.64 35.66 67 36 C66.67 36.99 66.34 37.98 66 39 C65.34 39 64.68 39 64 39 C63.67 39.66 63.34 40.32 63 41 C57.57692308 44 57.57692308 44 55 44 C54.67 44.66 54.34 45.32 54 46 C52.05668743 47.22545831 50.06788784 48.37900428 48.0625 49.5 C47.43843262 49.8511084 46.81436523 50.2022168 46.17138672 50.56396484 C42.76021427 52.47861212 39.33513179 54.36800214 35.91015625 56.2578125 C25.29396061 62.11938748 14.80069715 68.16913666 4.3359375 74.296875 C-3.12346497 78.66301643 -10.60984531 82.98191249 -18.1003418 87.29443359 C-23.21272272 90.2378674 -28.32300168 93.18461186 -33.42242432 96.1504364 C-35.80989553 97.53879977 -38.1987632 98.9247507 -40.58770752 100.31057739 C-42.2725462 101.28929105 -43.95539038 102.27143565 -45.63818359 103.25366211 C-46.66121582 103.84671143 -47.68424805 104.43976074 -48.73828125 105.05078125 C-49.63587158 105.57325439 -50.53346191 106.09572754 -51.45825195 106.6340332 C-54 108 -54 108 -59 110 C-58.67 157.85 -58.34 205.7 -58 255 C-66.55813953 253.93023256 -66.55813953 253.93023256 -69 251 C-69.66 250.835 -70.32 250.67 -71 250.5 C-73.45541971 249.88614507 -74.23766782 248.76233218 -76 247 C-77.32594105 246.63837971 -78.65938457 246.30271961 -80 246 C-80.99 245.01 -80.99 245.01 -82 244 C-82.99 243.67 -83.98 243.34 -85 243 C-85.7115625 242.2575 -85.7115625 242.2575 -86.4375 241.5 C-87.89764716 239.84960547 -87.89764716 239.84960547 -90 239.5 C-92.45541971 238.88614507 -93.23766782 237.76233218 -95 236 C-95.66 235.835 -96.32 235.67 -97 235.5 C-99.45541971 234.88614507 -100.23766782 233.76233218 -102 232 C-103.32594105 231.63837971 -104.65938457 231.30271961 -106 231 C-106.66 230.34 -107.32 229.68 -108 229 C-108.99 228.67 -109.98 228.34 -111 228 C-111.7115625 227.2575 -111.7115625 227.2575 -112.4375 226.5 C-113.89764716 224.84960547 -113.89764716 224.84960547 -116 224.5 C-118.44894929 223.88776268 -119.32011336 222.83260361 -121 221 C-121.66 220.67 -122.32 220.34 -123 220 C-123.18685733 200.9201135 -123.32794277 181.84041256 -123.41449738 162.75980091 C-123.45575409 153.90034722 -123.51200289 145.04146191 -123.60351562 136.18237305 C-123.68323789 128.46100717 -123.73486174 120.74005288 -123.75270796 113.01828688 C-123.76314097 108.92915663 -123.78766613 104.84120385 -123.84584045 100.75245094 C-123.90016073 96.90337924 -123.91689059 93.05596919 -123.90486145 89.2065506 C-123.90706173 87.79434614 -123.92296974 86.38208594 -123.9536438 84.97021294 C-124.17485523 74.26266734 -124.17485523 74.26266734 -121.22825623 71.09583092 C-119.19476576 69.82520104 -117.20851116 68.91728163 -115 68 C-114.01 67.01 -114.01 67.01 -113 66 C-111.33333333 65.33333333 -109.66666667 64.66666667 -108 64 C-107.34 63.34 -106.68 62.68 -106 62 C-103.98872941 60.92732235 -101.93725695 59.97047386 -99.875 59 C-97.83448849 58.02859623 -97.83448849 58.02859623 -96 56 C-93.66666667 55 -91.33333333 54 -89 53 C-88.34 52.34 -87.68 51.68 -87 51 C-86.01 50.67 -85.02 50.34 -84 50 C-83.54625 49.525625 -83.0925 49.05125 -82.625 48.5625 C-80.59439644 46.60999657 -78.63228068 45.96302952 -76 45 C-73.44373253 43.83142059 -72.01070731 43.01070731 -70 41 C-69.195625 40.690625 -68.39125 40.38125 -67.5625 40.0625 C-64.9867239 39.18586545 -64.9867239 39.18586545 -63.4375 37.4375 C-61.68276559 35.68276559 -60.36955531 35.59238883 -58 35 C-56.9805881 34.01979625 -55.97753644 33.02196992 -55 32 C-54.34 32 -53.68 32 -53 32 C-52.34 31.34 -51.68 30.68 -51 30 C-50.195625 29.690625 -49.39125 29.38125 -48.5625 29.0625 C-45.9867239 28.18586545 -45.9867239 28.18586545 -44.4375 26.4375 C-42.68276559 24.68276559 -41.36955531 24.59238883 -39 24 C-37.9805881 23.01979625 -36.97753644 22.02196992 -36 21 C-35.34 21 -34.68 21 -34 21 C-33.34 20.34 -32.68 19.68 -32 19 C-29.5 18 -29.5 18 -27 17 C-26.34 16.34 -25.68 15.68 -25 15 C-24.195625 14.690625 -23.39125 14.38125 -22.5625 14.0625 C-19.9867239 13.18586545 -19.9867239 13.18586545 -18.4375 11.4375 C-16.68276559 9.68276559 -15.36955531 9.59238883 -13 9 C-11.9805881 8.01979625 -10.97753644 7.02196992 -10 6 C-9.34 6 -8.68 6 -8 6 C-7.34 5.34 -6.68 4.68 -6 4 C-5.154375 3.67 -4.30875 3.34 -3.4375 3 C-0.85158559 2.25129886 -0.85158559 2.25129886 0 0 Z " fill="#F37E61" transform="translate(123,16)"/>
<path d="M0 0 C4.95946658 1.65315553 8.86328114 3.51448531 13.25 6.1875 C14.76356586 7.09371356 16.27794319 7.99857267 17.79296875 8.90234375 C18.62103027 9.39718262 19.4490918 9.89202148 20.30224609 10.40185547 C25.36136193 13.39886654 30.46488207 16.3191337 35.5625 19.25 C44.05684338 24.14096258 52.53765902 29.05387496 61 34 C69.2777499 38.83681358 77.56996473 43.64768863 85.875 48.4375 C86.93710693 49.05141602 87.99921387 49.66533203 89.09350586 50.29785156 C94.22565425 53.26145931 99.3643598 56.21199142 104.52557373 59.12464905 C106.95549912 60.49701541 109.38162105 61.8760264 111.80743408 63.25564575 C113.5311701 64.23224966 115.2604169 65.19910628 116.98974609 66.16577148 C118.02566895 66.75559814 119.0615918 67.3454248 120.12890625 67.953125 C121.04744385 68.47036133 121.96598145 68.98759766 122.91235352 69.52050781 C125 71 125 71 126 74 C124.9790625 74.55945313 123.958125 75.11890625 122.90625 75.6953125 C113.00197797 81.14753535 103.20288134 86.76256796 93.44677734 92.4753418 C86.02161201 96.82310185 78.58002227 101.14113849 71.125 105.4375 C69.50779053 106.36973389 69.50779053 106.36973389 67.85791016 107.32080078 C63.47536799 109.8464552 59.09216077 112.37095429 54.70898438 114.89550781 C42.68662565 121.82104363 30.67230556 128.759625 18.6875 135.75 C17.68509277 136.33467041 16.68268555 136.91934082 15.64990234 137.52172852 C10.47454695 140.52799872 10.47454695 140.52799872 5.38598633 143.67675781 C3 145 3 145 0 145 C0 97.15 0 49.3 0 0 Z " fill="#BF5248" transform="translate(128,163)"/>
<path d="M0 0 C0.99 0.495 0.99 0.495 2 1 C2.7109375 3.15234375 2.7109375 3.15234375 3.375 5.9375 C4.26729138 9.67329824 5.42785306 13.14520568 6.8828125 16.69140625 C9.43442426 22.93940378 11.37790798 29.34167259 13.35546875 35.7890625 C15.04678505 41.22270309 16.94897398 46.48879059 19.10742188 51.75390625 C20.24780853 54.62358819 21.14389929 57.53422253 22 60.5 C23.14236804 64.31232124 24.3449126 68.01402571 25.875 71.6875 C27.989243 76.80576395 29.71312445 82.0361692 31.44140625 87.29321289 C33.68327081 94.09504644 36.0200236 100.86157989 38.375 107.625 C41.76244494 117.35656976 45.06591291 127.11223917 48.26123047 136.90869141 C49.72530014 141.35718074 51.26303981 145.73444435 53.03515625 150.0703125 C55.01678736 154.92763751 56.60509584 159.85690371 58.125 164.875 C58.6244076 166.51920348 59.12690434 168.16247254 59.6328125 169.8046875 C59.84824707 170.51608887 60.06368164 171.22749023 60.28564453 171.96044922 C60.96203623 174.049177 60.96203623 174.049177 62.08544922 176.07470703 C63 178 63 178 63 181 C63.66 181.33 64.32 181.66 65 182 C57.44410876 181.38066465 57.44410876 181.38066465 55.25 179.5 C54.63125 178.7575 54.63125 178.7575 54 178 C53.34 177.835 52.68 177.67 52 177.5 C49.54458029 176.88614507 48.76233218 175.76233218 47 174 C45.67405895 173.63837971 44.34061543 173.30271961 43 173 C42.01 172.01 42.01 172.01 41 171 C40.01 170.67 39.02 170.34 38 170 C37.2884375 169.2575 37.2884375 169.2575 36.5625 168.5 C35.10235284 166.84960547 35.10235284 166.84960547 33 166.5 C30.54458029 165.88614507 29.76233218 164.76233218 28 163 C27.34 162.835 26.68 162.67 26 162.5 C23.54458029 161.88614507 22.76233218 160.76233218 21 159 C19.67405895 158.63837971 18.34061543 158.30271961 17 158 C16.34 157.34 15.68 156.68 15 156 C14.01 155.67 13.02 155.34 12 155 C11.2884375 154.2575 11.2884375 154.2575 10.5625 153.5 C9.10235284 151.84960547 9.10235284 151.84960547 7 151.5 C4.55105071 150.88776268 3.67988664 149.83260361 2 148 C1.34 147.67 0.68 147.34 0 147 C0 98.49 0 49.98 0 0 Z " fill="#832826" transform="translate(0,89)"/>
<path d="M0 0 C8.16789977 4.41060414 16.25605248 8.95192681 24.3125 13.5625 C24.91285065 13.90572296 25.51320129 14.24894592 26.13174438 14.60256958 C34.68235777 19.49325865 43.20376456 24.43143712 51.6875 29.4375 C52.61925049 29.98672119 53.55100098 30.53594238 54.51098633 31.10180664 C55.35685303 31.60317139 56.20271973 32.10453613 57.07421875 32.62109375 C57.81244873 33.0586499 58.55067871 33.49620605 59.3112793 33.94702148 C61 35 61 35 62 36 C62.09650437 37.86028034 62.12187292 39.72427029 62.12025452 41.58705139 C62.12162918 42.80006424 62.12300385 44.01307709 62.12442017 45.2628479 C62.12088056 46.61932397 62.11724575 47.9757998 62.11352539 49.33227539 C62.11324352 50.75112404 62.11340124 52.16997284 62.1139679 53.58882141 C62.11425589 57.45228801 62.1083589 61.31572383 62.10139394 65.17918324 C62.09516067 69.21242573 62.09455662 73.24566885 62.09336853 77.27891541 C62.09025514 84.92165468 62.08204164 92.56437973 62.07201904 100.20711273 C62.06085816 108.90588019 62.05534752 117.60464831 62.05032361 126.30342114 C62.03985903 144.20228884 62.02225943 162.10114328 62 180 C59.83029462 176.74544193 58.53391279 173.45241544 57.1875 169.8125 C56.92469238 169.10851074 56.66188477 168.40452148 56.39111328 167.67919922 C54.31499049 162.03720712 52.50213392 156.33420656 50.75463867 150.58349609 C49.38996701 146.13058838 47.79680817 141.85550861 46.01171875 137.55859375 C44.58997329 133.96305987 43.40209661 130.29901954 42.19824219 126.62573242 C40.12081028 120.30853429 37.93700251 114.02998822 35.75 107.75 C32.06583728 97.16531735 28.4924751 86.54725579 25.00683594 75.89550781 C22.90747733 69.47919211 22.90747733 69.47919211 20.39453125 63.21875 C18.5591158 58.98238493 17.28908505 54.64614639 15.98242188 50.22460938 C14.84330008 46.46071503 13.55437741 42.82344333 12.0625 39.18359375 C9.8824927 33.83527502 8.13972203 28.39096443 6.4375 22.875 C4.05253741 15.15655203 4.05253741 15.15655203 1.28515625 7.5703125 C0 4 0 4 0 0 Z " fill="#BE5147" transform="translate(2,90)"/>
<path d="M0 0 C0.33 0 0.66 0 1 0 C1 73.59 1 147.18 1 223 C0.67 223 0.34 223 0 223 C0 149.41 0 75.82 0 0 Z " fill="#C75454" transform="translate(126,162)"/>
<path d="M0 0 C0.33 0 0.66 0 1 0 C1 47.85 1 95.7 1 145 C0.67 145 0.34 145 0 145 C0 97.15 0 49.3 0 0 Z " fill="#FE0000" transform="translate(66,126)"/>
<path d="" fill="#FF0000" transform="translate(0,0)"/>
<path d="" fill="#000000" transform="translate(0,0)"/>
<path d="" fill="#FF0000" transform="translate(0,0)"/>
<path d="" fill="#FF0000" transform="translate(0,0)"/>
<path d="" fill="#FF0000" transform="translate(0,0)"/>
<path d="" fill="#FF0000" transform="translate(0,0)"/>
<path d="" fill="#000000" transform="translate(0,0)"/>
<path d="" fill="#FF0000" transform="translate(0,0)"/>
<path d="" fill="#FF0000" transform="translate(0,0)"/>
<path d="" fill="#FF0000" transform="translate(0,0)"/>
<path d="" fill="#FF0000" transform="translate(0,0)"/>
<path d="" fill="#000000" transform="translate(0,0)"/>
<path d="" fill="#FF0000" transform="translate(0,0)"/>
<path d="" fill="#FF0000" transform="translate(0,0)"/>
<path d="" fill="#FF0000" transform="translate(0,0)"/>
<path d="" fill="#FF0000" transform="translate(0,0)"/>
<path d="" fill="#000000" transform="translate(0,0)"/>
<path d="" fill="#FF0000" transform="translate(0,0)"/>
<path d="" fill="#FF0000" transform="translate(0,0)"/>
<path d="" fill="#FF0000" transform="translate(0,0)"/>
<path d="" fill="#FF0000" transform="translate(0,0)"/>
<path d="" fill="#FF0000" transform="translate(0,0)"/>
<path d="" fill="#FF0000" transform="translate(0,0)"/>
<path d="" fill="#000000" transform="translate(0,0)"/>
<path d="" fill="#FF0000" transform="translate(0,0)"/>
<path d="" fill="#FF0000" transform="translate(0,0)"/>
<path d="" fill="#FF0000" transform="translate(0,0)"/>
<path d="" fill="#FF0000" transform="translate(0,0)"/>
<path d="" fill="#FF0000" transform="translate(0,0)"/>
<path d="" fill="#FF0000" transform="translate(0,0)"/>
<path d="" fill="#FF0000" transform="translate(0,0)"/>
<path d="" fill="#FF0000" transform="translate(0,0)"/>
<path d="" fill="#000000" transform="translate(0,0)"/>
<path d="" fill="#FF0000" transform="translate(0,0)"/>
<path d="" fill="#000000" transform="translate(0,0)"/>
<path d="" fill="#FF0000" transform="translate(0,0)"/>
<path d="" fill="#FF0000" transform="translate(0,0)"/>
<path d="" fill="#FF0000" transform="translate(0,0)"/>
<path d="" fill="#000000" transform="translate(0,0)"/>
<path d="" fill="#FF0000" transform="translate(0,0)"/>
<path d="" fill="#FF0000" transform="translate(0,0)"/>
<path d="" fill="#000000" transform="translate(0,0)"/>
<path d="" fill="#FFFF00" transform="translate(0,0)"/>
<path d="" fill="#000000" transform="translate(0,0)"/>
<path d="" fill="#FF0000" transform="translate(0,0)"/>
<path d="" fill="#FFFFFF" transform="translate(0,0)"/>
<path d="" fill="#FF0000" transform="translate(0,0)"/>
<path d="" fill="#000000" transform="translate(0,0)"/>
<path d="" fill="#FF0000" transform="translate(0,0)"/>
<path d="" fill="#000000" transform="translate(0,0)"/>
<path d="" fill="#FF0000" transform="translate(0,0)"/>
<path d="" fill="#FF0000" transform="translate(0,0)"/>
<path d="" fill="#000000" transform="translate(0,0)"/>
<path d="" fill="#FF0000" transform="translate(0,0)"/>
<path d="" fill="#000000" transform="translate(0,0)"/>
<path d="" fill="#FF0000" transform="translate(0,0)"/>
<path d="" fill="#000000" transform="translate(0,0)"/>
<path d="" fill="#FF0000" transform="translate(0,0)"/>
<path d="" fill="#FF0000" transform="translate(0,0)"/>
<path d="" fill="#000000" transform="translate(0,0)"/>
<path d="" fill="#FF0000" transform="translate(0,0)"/>
<path d="" fill="#000000" transform="translate(0,0)"/>
<path d="" fill="#FF0000" transform="translate(0,0)"/>
<path d="" fill="#FF0000" transform="translate(0,0)"/>
<path d="" fill="#FFFFFF" transform="translate(0,0)"/>
<path d="" fill="#FF0000" transform="translate(0,0)"/>
<path d="" fill="#FF0000" transform="translate(0,0)"/>
<path d="" fill="#FFFFFF" transform="translate(0,0)"/>
<path d="" fill="#FFFFFF" transform="translate(0,0)"/>
<path d="" fill="#FF0000" transform="translate(0,0)"/>
<path d="" fill="#FF0000" transform="translate(0,0)"/>
<path d="" fill="#FFFF00" transform="translate(0,0)"/>
<path d="" fill="#FF0000" transform="translate(0,0)"/>
<path d="" fill="#FF0000" transform="translate(0,0)"/>
<path d="" fill="#FFFF00" transform="translate(0,0)"/>
<path d="" fill="#FFFFFF" transform="translate(0,0)"/>
<path d="" fill="#FFFFFF" transform="translate(0,0)"/>
<path d="" fill="#FFFF00" transform="translate(0,0)"/>
<path d="" fill="#FFFF00" transform="translate(0,0)"/>
<path d="" fill="#FFFF00" transform="translate(0,0)"/>
<path d="" fill="#FF0000" transform="translate(0,0)"/>
<path d="" fill="#FFFF00" transform="translate(0,0)"/>
<path d="" fill="#FF0000" transform="translate(0,0)"/>
<path d="" fill="#FF0000" transform="translate(0,0)"/>
<path d="" fill="#FFFFFF" transform="translate(0,0)"/>
<path d="" fill="#FF0000" transform="translate(0,0)"/>
<path d="" fill="#FF0000" transform="translate(0,0)"/>
<path d="" fill="#FFFFFF" transform="translate(0,0)"/>
<path d="" fill="#FF0000" transform="translate(0,0)"/>
<path d="" fill="#FF0000" transform="translate(0,0)"/>
<path d="" fill="#FFFFFF" transform="translate(0,0)"/>
<path d="" fill="#FF0000" transform="translate(0,0)"/>
<path d="" fill="#FF0000" transform="translate(0,0)"/>
<path d="" fill="#FFFFFF" transform="translate(0,0)"/>
<path d="" fill="#FFFFFF" transform="translate(0,0)"/>
<path d="" fill="#000000" transform="translate(0,0)"/>
<path d="" fill="#FFFFFF" transform="translate(0,0)"/>
<path d="" fill="#FF0000" transform="translate(0,0)"/>
<path d="" fill="#FF0000" transform="translate(0,0)"/>
<path d="" fill="#FFFFFF" transform="translate(0,0)"/>
<path d="" fill="#FF0000" transform="translate(0,0)"/>
<path d="" fill="#FFFFFF" transform="translate(0,0)"/>
<path d="" fill="#FFFFFF" transform="translate(0,0)"/>
<path d="" fill="#FF0000" transform="translate(0,0)"/>
<path d="" fill="#FF0000" transform="translate(0,0)"/>
<path d="" fill="#FF0000" transform="translate(0,0)"/>
<path d="" fill="#FFFFFF" transform="translate(0,0)"/>
<path d="" fill="#FFFF00" transform="translate(0,0)"/>
<path d="" fill="#FF0000" transform="translate(0,0)"/>
<path d="" fill="#FF0000" transform="translate(0,0)"/>
<path d="" fill="#FFFFFF" transform="translate(0,0)"/>
<path d="" fill="#FF0000" transform="translate(0,0)"/>
<path d="" fill="#FF0000" transform="translate(0,0)"/>
<path d="" fill="#FFFFFF" transform="translate(0,0)"/>
<path d="" fill="#FF0000" transform="translate(0,0)"/>
<path d="" fill="#FF0000" transform="translate(0,0)"/>
<path d="" fill="#FFFFFF" transform="translate(0,0)"/>
<path d="" fill="#FFFF00" transform="translate(0,0)"/>
<path d="" fill="#FF0000" transform="translate(0,0)"/>
<path d="" fill="#FF0000" transform="translate(0,0)"/>
<path d="" fill="#FFFF00" transform="translate(0,0)"/>
<path d="" fill="#FF0000" transform="translate(0,0)"/>
<path d="" fill="#FF0000" transform="translate(0,0)"/>
<path d="" fill="#FF0000" transform="translate(0,0)"/>
<path d="" fill="#FF0000" transform="translate(0,0)"/>
<path d="" fill="#FF0000" transform="translate(0,0)"/>
<path d="" fill="#000000" transform="translate(0,0)"/>
<path d="" fill="#FF0000" transform="translate(0,0)"/>
<path d="" fill="#FF0000" transform="translate(0,0)"/>
<path d="" fill="#FF0000" transform="translate(0,0)"/>
<path d="" fill="#FF0000" transform="translate(0,0)"/>
<path d="" fill="#FF0000" transform="translate(0,0)"/>
<path d="" fill="#FF0000" transform="translate(0,0)"/>
<path d="" fill="#FF0000" transform="translate(0,0)"/>
<path d="" fill="#FF0000" transform="translate(0,0)"/>
<path d="" fill="#FF0000" transform="translate(0,0)"/>
<path d="" fill="#FF0000" transform="translate(0,0)"/>
</svg>
