<?xml version="1.0" encoding="UTF-8"?>
<svg version="1.1" xmlns="http://www.w3.org/2000/svg" width="256" height="256">
<path d="M0 0 C2.8389492 0.0594305 4.29688133 0.23148489 6.60546875 1.91796875 C11.76800691 7.69236328 13.14595041 13.40771638 13.01953125 21.02734375 C12.60929412 24.88595094 11.25205591 27.99511722 9.75 31.5625 C9.42144434 34.58289924 9.42144434 34.58289924 11.31640625 36.359375 C11.97511719 37.00390625 12.63382813 37.6484375 13.3125 38.3125 C16.71692541 42.0829184 16.71692541 42.0829184 17 46.1875 C15.50373741 50.22740899 13.86619824 52.58479946 10.75 55.5625 C7.43982589 57.07366644 4.74701287 57.56280901 1.125 57.9375 C-2.78347967 58.66129253 -3.64697015 59.69916717 -6.25 62.5625 C-11.2542958 65.08252038 -16.17835255 64.93368564 -21.6796875 65.12109375 C-28.85370707 66.0080349 -32.98196653 68.83117991 -37.8125 74.0625 C-43.08922996 79.76044933 -47.46073051 82.63520601 -55.25 83.5625 C-54.58613281 84.16835937 -53.92226562 84.77421875 -53.23828125 85.3984375 C-45.8755862 92.38493645 -40.27803209 98.74169882 -39.5 109.1875 C-39.7719937 114.38478498 -41.43974324 117.31466312 -45.15625 120.8984375 C-51.38215203 125.84663576 -56.47829657 126.93926165 -64.4375 126.5625 C-65.11482178 126.53357666 -65.79214355 126.50465332 -66.48999023 126.47485352 C-72.58758226 125.97750301 -76.36309241 123.55423579 -80.5 119.1875 C-83.76250298 114.29374552 -84.55739848 109.33417937 -85.25 103.5625 C-86.24 104.0575 -86.24 104.0575 -87.25 104.5625 C-87.0334375 105.13355469 -86.816875 105.70460938 -86.59375 106.29296875 C-84.19077795 113.29051237 -83.01525735 120.19324229 -84.25 127.5625 C-86.43189274 131.29504608 -89.12641156 133.18797052 -93.25 134.5625 C-108.48053506 135.79593134 -125.83678786 136.26759001 -138.6875 126.6875 C-141.67711818 123.69788182 -142.16574349 120.77532534 -142.25 116.5625 C-143.735 117.0575 -143.735 117.0575 -145.25 117.5625 C-150.21736392 117.93045288 -153.35647112 117.8071074 -157.25 114.5625 C-160.86437655 109.45251936 -160.57027458 104.56468284 -160.25 98.5625 C-162.56 97.9025 -164.87 97.2425 -167.25 96.5625 C-168.82294261 102.40485827 -168.20823498 105.21861437 -165.3125 110.5625 C-162.54134525 115.72751612 -160.94822518 118.75458159 -162.25 124.5625 C-165.16454846 128.56234579 -168.25564715 130.29733924 -173 131.5625 C-183.05176302 132.08441846 -194.62509617 128.8436939 -203.25 123.8125 C-208.91007439 117.44491632 -210.73835639 109.99686849 -210.66015625 101.640625 C-209.48349543 92.81006569 -204.02124588 85.98758437 -198.25 79.5625 C-199.25417969 78.95664063 -200.25835937 78.35078125 -201.29296875 77.7265625 C-225.53798177 62.93829596 -225.53798177 62.93829596 -231.25 54.5625 C-231 51.75 -231 51.75 -230.25 49.5625 C-222.03807911 48.72668108 -214.9560459 51.79257396 -207.375 54.5625 C-205.38193426 55.27911871 -203.38766166 55.99218298 -201.39230347 56.70239258 C-199.59661638 57.34330436 -197.80431378 57.99367533 -196.01220703 58.64453125 C-193.41880198 59.66762404 -193.41880198 59.66762404 -191.25 59.5625 C-191.04246094 58.89605469 -190.83492187 58.22960937 -190.62109375 57.54296875 C-185.52438524 42.29549351 -175.22791444 28.2191167 -161.1953125 20.0234375 C-142.09862324 10.55107439 -118.45173771 8.1678722 -97.94921875 14.59765625 C-86.103292 18.92677872 -73.74125242 24.93023553 -65.25 34.5625 C-65.25 35.2225 -65.25 35.8825 -65.25 36.5625 C-64.198125 36.500625 -63.14625 36.43875 -62.0625 36.375 C-58.03315025 36.57316474 -56.29524535 36.96508484 -53.25 39.5625 C-52.4375 42.25 -52.4375 42.25 -52.25 44.5625 C-47.20237835 44.282194 -47.20237835 44.282194 -43.0625 41.625 C-39.33244437 35.32249221 -37.2861832 29.04645147 -35.875 21.875 C-34.64615033 16.27910928 -33.12177786 11.90120091 -28.25 8.5625 C-25.92843403 8.15520772 -23.5931213 7.81811323 -21.25 7.5625 C-20.1053125 6.2940625 -20.1053125 6.2940625 -18.9375 5 C-15.80991088 2.16334941 -15.10665039 2.27070959 -11.0625 2.375 C-10.20269531 2.44332031 -9.34289062 2.51164062 -8.45703125 2.58203125 C-5.13490451 2.5526319 -3.6973809 0.19492995 0 0 Z " fill="#0A0B0B" transform="translate(234.25,60.4375)"/>
<path d="M0 0 C2.02961434 1.76854362 3.53532364 3.30259798 4.8828125 5.640625 C4.62988739 9.03118861 2.82018202 11.70647742 1.1953125 14.640625 C-2.07903029 21.00131004 -4.03201738 27.52621026 -5.84838867 34.43359375 C-7.46986927 40.33879172 -9.69025411 46.21369161 -14.1171875 50.640625 C-18.56908491 50.32263233 -22.31748455 49.64549568 -26.4921875 48.078125 C-34.88452552 45.14204114 -42.67772931 46.74053326 -50.9921875 49.140625 C-62.76611086 52.25270877 -71.14005653 53.49940066 -82.19140625 47.421875 C-85.00839341 45.70686012 -87.74963291 43.90917169 -90.4921875 42.078125 C-97.64375684 37.38328108 -105.79982661 34.56158796 -114.1171875 32.640625 C-114.57006157 27.32964721 -113.07393262 23.57532505 -110.6796875 18.953125 C-110.32060303 18.25195557 -109.96151855 17.55078613 -109.59155273 16.82836914 C-101.77987057 2.09058744 -90.43393903 -8.00726649 -74.734375 -13.5546875 C-48.57566545 -21.23578702 -21.928685 -15.73975299 0 0 Z " fill="#7E9AC6" transform="translate(161.1171875,92.359375)"/>
<path d="M0 0 C0.99 0.33 1.98 0.66 3 1 C3.02578125 1.99 3.0515625 2.98 3.078125 4 C3.36121176 11.43079227 3.6721568 17.6937142 8 24 C11.90777136 26.47809891 14.51334044 25.86584658 19 25 C20.19302734 24.71382812 20.19302734 24.71382812 21.41015625 24.421875 C25.8290535 23.70205463 29.81204974 24.49206374 34 26 C36.55878792 27.85080085 37.38303749 29.15637628 39 32 C39 35.83493882 37.58144199 38.21998555 35 41 C31.36445419 42.2118486 27.97592248 42.2609802 24.1875 42.3125 C23.13852539 42.35600586 23.13852539 42.35600586 22.06835938 42.40039062 C15.71497335 42.4776535 12.22948483 40.11214352 7.625 35.75 C7.08875 35.1725 6.5525 34.595 6 34 C5.01 34.495 5.01 34.495 4 35 C7.91101794 40.86652691 13.25313781 43.49400398 20 45 C20 45.66 20 46.32 20 47 C14.46492251 49.19494452 9.8410824 50.18253921 3.875 50.4375 C-3.27164336 50.85924398 -7.10283781 51.83522846 -11.9453125 57.125 C-13.31223188 58.70501328 -14.67682805 60.28703951 -16.0390625 61.87109375 C-19.37431425 65.4920344 -22.39243475 67.67977269 -27.44921875 68.30078125 C-32.33945208 68.4396668 -36.44185468 67.91921908 -41 66 C-37.45867293 42.12728929 -37.45867293 42.12728929 -32 38 C-28.99090561 37.31184063 -26.04282151 36.87296 -22.97265625 36.5546875 C-17.32276785 35.50043763 -14.2207618 32.61642525 -11 28 C-8.01555847 22.80006744 -7.10659777 17.76779435 -6.359375 11.921875 C-5.52529438 6.59189639 -3.73614814 3.89435636 0 0 Z " fill="#FAFAFA" transform="translate(208,72)"/>
<path d="M0 0 C1.670625 0.061875 1.670625 0.061875 3.375 0.125 C4.365 2.105 4.365 2.105 5.375 4.125 C4.91609375 4.57488281 4.4571875 5.02476563 3.984375 5.48828125 C-2.63913028 12.43182985 -4.85838851 19.53573389 -6.86425781 28.79394531 C-8.40310619 35.72379194 -10.58019092 41.66684652 -14.0625 47.875 C-14.4339917 48.54233154 -14.8054834 49.20966309 -15.18823242 49.8972168 C-18.16708469 54.94808833 -21.15438646 58.43871846 -27 60.0625 C-31.29296434 60.13651663 -33.786591 58.97312285 -37.625 57.125 C-43.18283091 55.74914055 -48.74325302 55.86410949 -54.4375 55.8125 C-55.49259766 55.78349609 -56.54769531 55.75449219 -57.63476562 55.72460938 C-63.64934289 55.67589317 -67.75109751 56.20737805 -72.96801758 59.23266602 C-78.06507417 61.97758157 -84.63748069 59.44369981 -89.86328125 57.98828125 C-97.46504579 55.67732499 -103.36997972 53.67702953 -108.15625 47.01953125 C-111.85429964 42.24944062 -117.88838714 39.55915322 -123.625 38.125 C-124.97901269 38.03920118 -126.33319208 37.95600533 -127.6875 37.875 C-130.92266195 37.52659794 -132.47800401 36.78089563 -134.6875 34.375 C-136.625 31.125 -136.625 31.125 -136.4375 28.25 C-136.169375 27.54875 -135.90125 26.8475 -135.625 26.125 C-129.07200225 25.85898722 -123.92364352 26.52605226 -117.75 28.6875 C-116.57872559 29.08751221 -116.57872559 29.08751221 -115.38378906 29.49560547 C-108.83888621 31.83655231 -103.23531476 35.0147694 -97.625 39.125 C-88.89926362 45.29220536 -80.11720594 46.38809929 -69.625 45.125 C-65.86765262 44.28666491 -62.23560853 43.10380908 -58.57446289 41.92382812 C-49.33187372 38.98334526 -43.17092978 39.62986474 -34.17578125 43.23046875 C-29.69734507 44.80100762 -26.14707673 44.63235891 -21.625 43.125 C-20.48596717 40.79657186 -20.48596717 40.79657186 -19.625 38.125 C-19.18220703 37.09632813 -19.18220703 37.09632813 -18.73046875 36.046875 C-16.44693901 30.6441408 -14.75968439 25.20137682 -13.1875 19.5625 C-7.75049787 0.26725855 -7.75049787 0.26725855 0 0 Z " fill="#F8F8F8" transform="translate(172.625,100.875)"/>
<path d="M0 0 C1.11181641 -0.020625 2.22363281 -0.04125 3.36914062 -0.0625 C10.97394207 -0.09852037 17.28891401 0.2549519 23.3125 5.375 C24.8125 7.25 24.8125 7.25 24.8125 8.25 C24.12285156 8.40855469 23.43320313 8.56710938 22.72265625 8.73046875 C10.75464062 11.70195137 3.95997416 15.75105512 -2.44140625 26.3203125 C-3.38631137 27.94673456 -4.29161983 29.59606737 -5.1875 31.25 C-12.08520888 30.08505361 -17.10563791 28.33186209 -22.1875 23.25 C-23.02584939 17.59670587 -23.53236745 11.70600126 -20.7265625 6.58203125 C-14.60249056 -0.51103941 -8.90744724 0.04060375 0 0 Z " fill="#FBFBFB" transform="translate(118.1875,158.75)"/>
<path d="M0 0 C8.60752048 1.63246078 14.40147125 5.65050754 20.625 11.6875 C20.315625 12.368125 20.00625 13.04875 19.6875 13.75 C18.49129351 17.05715912 18.03494603 20.20295878 17.625 23.6875 C16.33916016 23.74357422 16.33916016 23.74357422 15.02734375 23.80078125 C5.85991871 24.1754865 5.85991871 24.1754865 -2.375 27.6875 C-5.52822297 31.58464688 -7.74690003 35.95120919 -9.375 40.6875 C-13.48724763 36.79168646 -16.03643024 34.27234989 -16.78125 28.5859375 C-17.01242834 19.89748483 -15.85358744 14.48143113 -10.375 7.6875 C-9.81039062 6.97207031 -9.24578125 6.25664062 -8.6640625 5.51953125 C-5.86428667 2.34602969 -4.21110284 0.85781725 0 0 Z " fill="#F9F9F9" transform="translate(44.375,140.3125)"/>
<path d="M0 0 C3.97303439 0.3733695 5.25201126 1.46886419 8.1171875 4.1796875 C8.89835937 4.89898437 9.67953125 5.61828125 10.484375 6.359375 C12.2421875 8.3046875 12.2421875 8.3046875 12.2421875 10.3046875 C10.51953125 11.53125 10.51953125 11.53125 8.1796875 12.9296875 C2.52548937 16.57726958 -1.70908771 20.91983784 -5.1953125 26.6796875 C-6.09228145 30.86554258 -5.90679218 35.04221345 -5.7578125 39.3046875 C-9.16625338 37.92559088 -10.42518785 36.69905256 -11.9453125 33.3671875 C-12.26886719 32.67753906 -12.59242188 31.98789063 -12.92578125 31.27734375 C-14.70030155 27.07014774 -15.22216569 23.87082721 -14.7578125 19.3046875 C-12.6328125 16.6171875 -12.6328125 16.6171875 -11.265625 15.1875 C-8.53176561 11.77371703 -6.86741106 7.74567624 -4.9921875 3.81640625 C-3.29556378 0.36409911 -3.29556378 0.36409911 0 0 Z " fill="#F7F7F7" transform="translate(167.7578125,141.6953125)"/>
<path d="M0 0 C3.95024253 0.08587484 5.52534277 0.5125142 8.3125 3.375 C11.84196893 8.865285 11.60587113 14.66291545 11 21 C9.57566206 25.10378554 7.65665192 27.56223205 4 30 C1.5625 29.9375 1.5625 29.9375 -1 29 C-6.26709765 23.44028582 -6.33401437 18.55148051 -6.29296875 11.1796875 C-5.80712754 5.90669088 -3.67883003 3.67883003 0 0 Z " fill="#0072B1" transform="translate(220,66)"/>
<path d="M0 0 C1.26407166 3.79221497 0.52814161 4.57124049 -1.125 8.125 C-3.37654437 13.24384259 -5.02223652 18.31290255 -6.5 23.6875 C-10.74226711 38.82817807 -10.74226711 38.82817807 -17 43 C-21.76347094 43.59543387 -24.86310626 42.77472282 -29.3125 41 C-37.4266649 37.88087505 -44.04247666 38.18906526 -52.08984375 41.34375 C-54 42 -54 42 -57 42 C-56.67 40.68 -56.34 39.36 -56 38 C-44.76834413 34.41270307 -36.86524817 33.8555521 -25.76171875 38.125 C-21.91851689 39.43781507 -21.91851689 39.43781507 -18 39 C-12.97386761 33.64523223 -11.28590189 26.25778551 -9.375 19.375 C-4.79363208 3.19575472 -4.79363208 3.19575472 0 0 Z " fill="#0D0E11" transform="translate(165,103)"/>
<path d="M0 0 C10.8679151 2.67243814 21.41101147 6.40643851 32 10 C31.19175781 10.59296875 30.38351563 11.1859375 29.55078125 11.796875 C26.71369633 13.81998021 26.71369633 13.81998021 26.1875 17.25 C26.0946875 18.61125 26.0946875 18.61125 26 20 C22.51609176 18.72414352 19.67818921 17.24524478 16.6796875 15.06640625 C15.89722656 14.49986328 15.11476563 13.93332031 14.30859375 13.34960938 C13.50550781 12.75986328 12.70242187 12.17011719 11.875 11.5625 C11.06417969 10.97662109 10.25335938 10.39074219 9.41796875 9.78710938 C2.20497973 4.53533803 2.20497973 4.53533803 0 2 C0 1.34 0 0.68 0 0 Z " fill="#F3F3F3" transform="translate(7,113)"/>
<path d="M0 0 C1.9375 0.875 1.9375 0.875 3.05078125 2.4765625 C4.26609129 5.76378878 4.12718493 8.63201381 4.0625 12.125 C4.04445313 13.38828125 4.02640625 14.6515625 4.0078125 15.953125 C3.98460937 16.91734375 3.96140625 17.8815625 3.9375 18.875 C-0.89878305 17.88456295 -5.53868873 16.91801154 -10.0625 14.875 C-9.54496957 9.57031313 -7.93502664 6.26827604 -5.0625 1.875 C-2.0625 -0.125 -2.0625 -0.125 0 0 Z " fill="#F7F7F7" transform="translate(48.0625,168.125)"/>
<path d="M0 0 C2.8125 0.375 2.8125 0.375 5.5625 2.9375 C8.06212032 6.22070036 8.56546583 9.25776389 8.8125 13.375 C7.8225 12.715 6.8325 12.055 5.8125 11.375 C4.4925 11.705 3.1725 12.035 1.8125 12.375 C1.8125 15.675 1.8125 18.975 1.8125 22.375 C4.24967258 22.10465366 4.24967258 22.10465366 6.8125 21.375 C7.4725 20.385 8.1325 19.395 8.8125 18.375 C8.36255466 23.21191236 7.32354725 25.96148184 3.8125 29.375 C1.0625 30.1875 1.0625 30.1875 -1.1875 30.375 C-2.3125 26.625 -2.3125 26.625 -1.1875 24.375 C-1.03772961 22.12844413 -0.96599826 19.87636232 -0.9375 17.625 C-0.91171875 16.41328125 -0.8859375 15.2015625 -0.859375 13.953125 C-1.21347217 10.09177964 -2.3862736 7.76150196 -4.1875 4.375 C-2.85842652 0.49001597 -2.85842652 0.49001597 0 0 Z " fill="#0072B0" transform="translate(234.1875,63.625)"/>
<path d="M0 0 C0.58007812 0.20496094 1.16015625 0.40992188 1.7578125 0.62109375 C6.1621984 2.14009813 10.35677777 3.4047151 15 4 C14.51834131 10.38197767 14.51834131 10.38197767 12.375 12.9375 C9.06762954 14.4171131 6.57993132 14.39053796 3 14 C0.89641619 12.45737187 0.15945841 11.31891683 -1 9 C-1.18704404 6.30986661 -1.08581391 3.70313823 -1 1 C-0.67 0.67 -0.34 0.34 0 0 Z " fill="#404040" transform="translate(79,160)"/>
<path d="M0 0 C4.53676653 3.50511825 7.992823 6.45074595 10 12 C10.04122949 13.66615663 10.04776003 15.33401778 10 17 C6.62069376 17.28530728 3.37239099 17.41206063 0 17 C-2.1875 15.0625 -2.1875 15.0625 -3 12 C-3.01644562 7.30477624 -2.63214585 3.94821877 0 0 Z " fill="#F5F5F5" transform="translate(167,166)"/>
<path d="M0 0 C3.3772445 1.39275254 4.87070305 2.82273931 6.75 5.9375 C7.17796875 6.62714844 7.6059375 7.31679687 8.046875 8.02734375 C9 10 9 10 9 13 C3.72 13 -1.56 13 -7 13 C-5.88260388 7.41301939 -4.01177204 4.01177204 0 0 Z " fill="#F8F8F8" transform="translate(124,178)"/>
<path d="M0 0 C5.06379731 1.96561448 8.36780524 7.60891399 11.11328125 12.0703125 C12.11328125 14.8203125 12.11328125 14.8203125 12.11328125 17.0703125 C10.67813763 19.58181384 8.75808697 19.85394118 6.11328125 20.8203125 C5.88253906 20.16804688 5.65179688 19.51578125 5.4140625 18.84375 C2.91616872 12.14978959 0.16138188 7.86841313 -4.88671875 2.8203125 C-2.44424087 -0.23278485 -2.44424087 -0.23278485 0 0 Z " fill="#F5F5F5" transform="translate(173.88671875,160.1796875)"/>
<path d="M0 0 C3.87629861 1.48233216 5.41578835 5.14294776 7.04296875 8.78125 C8.06174087 13.08504242 8.45011659 16.55980648 7.04296875 20.78125 C6.38296875 20.78125 5.72296875 20.78125 5.04296875 20.78125 C4.76324219 20.14058594 4.48351562 19.49992187 4.1953125 18.83984375 C1.3346119 12.66772124 -1.82634015 8.2465777 -6.95703125 3.78125 C-3.01755653 -0.33729175 -3.01755653 -0.33729175 0 0 Z " fill="#E9E9E9" transform="translate(182.95703125,154.21875)"/>
<path d="M0 0 C4.02363348 1.30889282 5.25802322 3.87173974 7.43359375 7.34375 C9.17074408 11.08710424 9.03720414 13.77875373 8.59375 17.84375 C6.94375 17.84375 5.29375 17.84375 3.59375 17.84375 C3.32820312 17.16828125 3.06265625 16.4928125 2.7890625 15.796875 C2.43585938 14.90484375 2.08265625 14.0128125 1.71875 13.09375 C1.37070313 12.21203125 1.02265625 11.3303125 0.6640625 10.421875 C-0.70317603 7.04756979 -0.70317603 7.04756979 -2.40625 3.84375 C-3.39625 3.51375 -4.38625 3.18375 -5.40625 2.84375 C-3.62276723 0.49706215 -3.02342433 -0.19632626 0 0 Z " fill="#F0F0F0" transform="translate(132.40625,173.15625)"/>
<path d="M0 0 C2.35546875 0.22265625 2.35546875 0.22265625 5 1 C9.19139083 6.94480934 9.53767355 13.98037305 9 21 C7.02 21 5.04 21 3 21 C2.92652344 19.35451172 2.92652344 19.35451172 2.8515625 17.67578125 C2.77649409 16.22133075 2.70094803 14.76690484 2.625 13.3125 C2.5940625 12.59126953 2.563125 11.87003906 2.53125 11.12695312 C2.30664413 7.02789606 1.82259091 3.75631541 0 0 Z " fill="#E1E1E1" transform="translate(52,167)"/>
<path d="M0 0 C3.875 1.875 3.875 1.875 5 3 C5.36090226 10.45864662 5.36090226 10.45864662 3 14 C0.5625 13.625 0.5625 13.625 -2 13 C-3.58512383 9.82975235 -3.42372144 6.45332972 -3 3 C-1.5 1 -1.5 1 0 0 Z " fill="#000508" transform="translate(225,76)"/>
<path d="M0 0 C1.02766017 3.08298051 1.16598738 5.33130426 1.1875 8.5625 C1.20167969 9.53316406 1.21585938 10.50382813 1.23046875 11.50390625 C1 14 1 14 -1 16 C-1.24234375 15.26394531 -1.4846875 14.52789062 -1.734375 13.76953125 C-3.53852263 8.51668604 -5.06399948 4.07657197 -9 0 C-5.67465243 -1.10844919 -3.37817425 -0.84454356 0 0 Z " fill="#EDEDED" transform="translate(145,171)"/>
<path d="M0 0 C3.53571429 0.53571429 3.53571429 0.53571429 5 2 C5.0979057 3.49738124 5.12974864 4.99942892 5.125 6.5 C5.12757813 7.3146875 5.13015625 8.129375 5.1328125 8.96875 C5 11 5 11 4 12 C2.33382885 12.04063832 0.66611905 12.042721 -1 12 C-2.11445498 9.77109005 -2.16480286 8.46944894 -2.1875 6 C-2.20167969 5.29875 -2.21585938 4.5975 -2.23046875 3.875 C-2 2 -2 2 0 0 Z " fill="#000305" transform="translate(237,74)"/>
<path d="M0 0 C3.56372969 0.55418691 4.92619664 1.62880828 7.0625 4.5 C10.08083982 8.71803438 11.68421485 13.0138668 13 18 C11.68 18.33 10.36 18.66 9 19 C8.79697266 18.1646875 8.79697266 18.1646875 8.58984375 17.3125 C6.7604011 10.82729014 3.72022041 6.74608464 -1 2 C-0.67 1.34 -0.34 0.68 0 0 Z " fill="#1F1F1F" transform="translate(168,164)"/>
<path d="M0 0 C0.33 0 0.66 0 1 0 C1.33 2.64 1.66 5.28 2 8 C4.43717258 7.72965366 4.43717258 7.72965366 7 7 C7.66 6.01 8.32 5.02 9 4 C8.55005466 8.83691236 7.51104725 11.58648184 4 15 C1.25 15.8125 1.25 15.8125 -1 16 C-2.125 12.25 -2.125 12.25 -1 10 C-0.77377919 8.29636178 -0.59111527 6.58671299 -0.4375 4.875 C-0.35371094 3.96492188 -0.26992187 3.05484375 -0.18359375 2.1171875 C-0.12300781 1.41851562 -0.06242188 0.71984375 0 0 Z " fill="#0068A1" transform="translate(234,78)"/>
<path d="M0 0 C3 1 3 1 4.38671875 3.109375 C4.81597656 3.98078125 5.24523437 4.8521875 5.6875 5.75 C6.12449219 6.61109375 6.56148438 7.4721875 7.01171875 8.359375 C8.07870394 11.21029196 8.50275258 12.99344004 8 16 C6 17.8125 6 17.8125 4 19 C3.81824219 17.82244141 3.81824219 17.82244141 3.6328125 16.62109375 C2.72813917 10.94948787 1.7420701 5.47507746 0 0 Z " fill="#F1F1F1" transform="translate(60,167)"/>
<path d="M0 0 C0.33 0.99 0.66 1.98 1 3 C-1.05233685 5.2477975 -2.00667261 6.0022242 -5 7 C-3.75023244 3.34683329 -3.32901247 2.21934164 0 0 Z " fill="#181818" transform="translate(119,181)"/>
</svg>
